<?xml version="1.0" encoding="UTF-8"?><svg id="Capa_1" xmlns="http://www.w3.org/2000/svg" width="575.2" height="659.9" xmlns:xlink="http://www.w3.org/1999/xlink" viewBox="0 0 575.2 659.9"><defs><style>.cls-1{fill:#063249;}.cls-1,.cls-2{stroke-width:0px;}.cls-3{clip-path:url(#clippath-2);}.cls-2,.cls-4{fill:#007fa9;}.cls-5{clip-path:url(#clippath-1);}.cls-6{fill:none;font-size:367.1px;}.cls-6,.cls-4{font-family:FranklinGothic-Medium, 'Franklin Gothic Medium';font-weight:500;}.cls-7{clip-path:url(#clippath);}.cls-4{font-size:573px;}</style><clipPath id="clippath"><text class="cls-4" transform="translate(244.8 477.7) scale(.6 1)"><tspan x="0" y="0">E</tspan></text></clipPath><clipPath id="clippath-1"><text class="cls-4" transform="translate(186.1 477.7) scale(.6 1)"><tspan x="0" y="0">I</tspan></text></clipPath><clipPath id="clippath-2"><text class="cls-6" transform="translate(0 343.7)"><tspan x="0" y="0">S</tspan></text></clipPath></defs><g class="cls-7"><rect class="cls-2" x="-1815.1" y="-278.7" width="3086.4" height="1292.6"/></g><g class="cls-5"><rect class="cls-2" x="-1150" y="-352.5" width="2435.4" height="1547.8"/></g><g class="cls-3"><rect class="cls-2" x="-593.3" y="-133" width="2009.4" height="818.2"/></g><rect class="cls-1" x="18.7" y="357.1" width="179.7" height="34.5" rx="5.3" ry="5.3"/><rect class="cls-1" x="50" y="402.1" width="117.2" height="22.4" rx="3.5" ry="3.5"/><path class="cls-1" d="M70.9,435s0,0,0,0c0,20.8,16.9,37.6,37.6,37.6s37.6-16.9,37.6-37.6,0,0,0,0h-75.3Z"/></svg>